<?xml version="1.0" encoding="UTF-8"?>
<svg width="100" height="100" viewBox="0 0 100 100" xmlns="http://www.w3.org/2000/svg">
    <!-- Cat head shape -->
    <path d="M50 10
             C20 10 10 35 10 55
             C10 80 30 90 50 90
             C70 90 90 80 90 55
             C90 35 80 10 50 10Z" 
          fill="#FFA000"/>
    
    <!-- Left ear -->
    <path d="M25 25
             L10 10
             L30 20
             Z" 
          fill="#FFA000"/>
    
    <!-- Right ear -->
    <path d="M75 25
             L90 10
             L70 20
             Z" 
          fill="#FFA000"/>
    
    <!-- Eyes -->
    <ellipse cx="35" cy="45" rx="5" ry="8" fill="#000"/>
    <ellipse cx="65" cy="45" rx="5" ry="8" fill="#000"/>
    
    <!-- Nose -->
    <path d="M50 60
             L45 65
             L55 65
             Z" 
          fill="#FF6F00"/>
    
    <!-- Whiskers -->
    <line x1="30" y1="65" x2="10" y2="60" stroke="#000" stroke-width="1"/>
    <line x1="30" y1="65" x2="10" y2="65" stroke="#000" stroke-width="1"/>
    <line x1="30" y1="65" x2="10" y2="70" stroke="#000" stroke-width="1"/>
    
    <line x1="70" y1="65" x2="90" y2="60" stroke="#000" stroke-width="1"/>
    <line x1="70" y1="65" x2="90" y2="65" stroke="#000" stroke-width="1"/>
    <line x1="70" y1="65" x2="90" y2="70" stroke="#000" stroke-width="1"/>
</svg>
